<svg xmlns="http://www.w3.org/2000/svg" width="240" height="114" viewBox="38 301 240 114">
  <defs>
    <linearGradient id="bluePurpleGradient" x1="0%" y1="0%" x2="100%" y2="0%">
      <stop offset="0%" stop-color="#2563EB"/>
      <stop offset="100%" stop-color="#9333EA"/>
    </linearGradient>
  </defs>

  <!-- brackets -->
  <path fill="url(#bluePurpleGradient)" fill-rule="evenodd" d="M119.351562 302.308594 C117.550781 302.660156 112.148438 305.21875 107.351562 307.988281 C91.621094 317.066406 46.179688 344.375 43.699219 346.234375 C41.953125 347.546875 40.941406 349.207031 40.078125 352.171875 C38.925781 356.136719 38.941406 356.40625 40.507812 359.636719 C41.695312 362.089844 43.265625 363.707031 46.378906 365.667969 C53.734375 370.304688 111.984375 405.046875 115.097656 406.65625 C117.347656 407.820312 120.019531 408.289062 126.054688 408.574219 C130.480469 408.785156 134.222656 408.648438 134.457031 408.273438 C135.132812 407.179688 128.585938 394.316406 126.253906 392.144531 C125.082031 391.054688 116.023438 385.355469 106.125 379.480469 C64.308594 354.652344 63.28125 354 66.011719 354 C66.429688 354 68.539062 352.863281 70.699219 351.472656 C72.859375 350.082031 85.59375 342.410156 98.996094 334.429688 C112.398438 326.445312 124.664062 318.742188 126.246094 317.3125 C128.847656 314.964844 133.226562 307.535156 134.578125 303.1875 C135.09375 301.527344 135.003906 301.5 128.863281 301.582031 C125.433594 301.628906 121.152344 301.953125 119.351562 302.308594 M181.386719 301.84375 C180.773438 302.480469 183.980469 310.464844 186.320312 314.132812 C187.28125 315.640625 188.871094 317.578125 189.847656 318.441406 C191.699219 320.074219 206.761719 329.203125 233.625 344.980469 C242.289062 350.066406 249.65625 354.472656 249.996094 354.773438 C250.691406 355.382812 251.0625 355.15625 217.875 374.632812 C204.675781 382.378906 192.578125 389.933594 190.996094 391.417969 C188.378906 393.878906 183.28125 402.695312 181.886719 407.171875 L181.332031 408.964844 L198.410156 408.214844 L214.140625 398.835938 C225.75 391.929688 237.371094 385.039062 249 378.164062 C259.519531 371.953125 269.394531 366 270.949219 364.933594 C278.839844 359.523438 278.652344 350.128906 270.5625 345.320312 C268.808594 344.277344 262.3125 340.457031 256.125 336.832031 C249.9375 333.207031 235.085938 324.496094 223.125 317.480469 C211.164062 310.460938 200.195312 304.109375 198.75 303.363281 C196.070312 301.980469 182.40625 300.785156 181.386719 301.84375"/>
</svg>