<svg xmlns="http://www.w3.org/2000/svg" width="962" height="114" viewBox="40 301 962 114">
  <defs>
    <linearGradient id="bluePurpleGradient" x1="0%" y1="0%" x2="100%" y2="0%">
      <stop offset="0%" stop-color="#2563EB"/>
      <stop offset="100%" stop-color="#9333EA"/>
    </linearGradient>
  </defs>

  <!-- brackets -->
  <path fill="url(#bluePurpleGradient)" fill-rule="evenodd" d="M119.351562 302.308594 C117.550781 302.660156 112.148438 305.21875 107.351562 307.988281 C91.621094 317.066406 46.179688 344.375 43.699219 346.234375 C41.953125 347.546875 40.941406 349.207031 40.078125 352.171875 C38.925781 356.136719 38.941406 356.40625 40.507812 359.636719 C41.695312 362.089844 43.265625 363.707031 46.378906 365.667969 C53.734375 370.304688 111.984375 405.046875 115.097656 406.65625 C117.347656 407.820312 120.019531 408.289062 126.054688 408.574219 C130.480469 408.785156 134.222656 408.648438 134.457031 408.273438 C135.132812 407.179688 128.585938 394.316406 126.253906 392.144531 C125.082031 391.054688 116.023438 385.355469 106.125 379.480469 C64.308594 354.652344 63.28125 354 66.011719 354 C66.429688 354 68.539062 352.863281 70.699219 351.472656 C72.859375 350.082031 85.59375 342.410156 98.996094 334.429688 C112.398438 326.445312 124.664062 318.742188 126.246094 317.3125 C128.847656 314.964844 133.226562 307.535156 134.578125 303.1875 C135.09375 301.527344 135.003906 301.5 128.863281 301.582031 C125.433594 301.628906 121.152344 301.953125 119.351562 302.308594 M181.386719 301.84375 C180.773438 302.480469 183.980469 310.464844 186.320312 314.132812 C187.28125 315.640625 188.871094 317.578125 189.847656 318.441406 C191.699219 320.074219 206.761719 329.203125 233.625 344.980469 C242.289062 350.066406 249.65625 354.472656 249.996094 354.773438 C250.691406 355.382812 251.0625 355.15625 217.875 374.632812 C204.675781 382.378906 192.578125 389.933594 190.996094 391.417969 C188.378906 393.878906 183.28125 402.695312 181.886719 407.171875 L181.332031 408.964844 L198.410156 408.214844 L214.140625 398.835938 C225.75 391.929688 237.371094 385.039062 249 378.164062 C259.519531 371.953125 269.394531 366 270.949219 364.933594 C278.839844 359.523438 278.652344 350.128906 270.5625 345.320312 C268.808594 344.277344 262.3125 340.457031 256.125 336.832031 C249.9375 333.207031 235.085938 324.496094 223.125 317.480469 C211.164062 310.460938 200.195312 304.109375 198.75 303.363281 C196.070312 301.980469 182.40625 300.785156 181.386719 301.84375"/>

  <!-- hive -->
  <path fill="#000000" fill-rule="evenodd" d="M329.59375 314.4375 C329.394531 314.953125 329.320312 331.574219 329.429688 351.375 L329.625 387.375 L343.5 387.804688 L343.5 368.242188 C343.5 346.527344 343.769531 345.085938 348.089844 343.582031 C351.328125 342.453125 389.667969 342.449219 392.902344 343.578125 C394.210938 344.035156 395.695312 345.132812 396.203125 346.015625 C396.839844 347.128906 397.242188 353.777344 397.5 367.5 L397.875 387.375 L404.4375 387.589844 L411 387.808594 L411 366.378906 C411 348.703125 410.796875 344.464844 409.835938 342.164062 C408.359375 338.625 405.453125 335.558594 401.625 333.492188 C398.71875 331.925781 397.824219 331.875 373.125 331.875 C349.476562 331.875 347.476562 331.976562 345.5625 333.273438 L343.5 334.671875 L343.5 324.984375 C343.5 318.453125 343.207031 315.007812 342.601562 314.398438 C341.347656 313.148438 330.074219 313.179688 329.59375 314.4375 M427.179688 314.679688 C425.867188 315.988281 425.585938 321.441406 426.738281 323.25 C427.730469 324.816406 438.550781 324.773438 439.546875 323.203125 C440.320312 321.980469 440.480469 316.472656 439.792969 314.6875 C439.144531 312.988281 428.875 312.984375 427.179688 314.679688 M426 359.625 L426 387.75 L439.5 387.75 L439.5 331.5 L426 331.5 Z M454.5 332.136719 C454.5 332.945312 481.8125 377.726562 484.988281 382.125 C487.984375 386.273438 491.253906 387.746094 497.460938 387.75 C503.113281 387.75 506.585938 386.589844 508.945312 383.910156 C509.808594 382.925781 516.695312 371.832031 524.246094 359.25 C531.800781 346.667969 538.601562 335.480469 539.363281 334.382812 C540.125 333.289062 540.75 332.179688 540.75 331.921875 C540.75 331.660156 537.296875 331.542969 533.074219 331.660156 L525.402344 331.875 L512.5625 353.25 C499.832031 374.445312 498.539062 376.09375 495.933594 374.394531 C495.414062 374.058594 489.320312 364.351562 482.382812 352.828125 L469.777344 331.875 L462.136719 331.660156 C457.847656 331.542969 454.5 331.75 454.5 332.136719 M556.496094 332.199219 C550.863281 333.914062 547.644531 336.789062 545.222656 342.261719 C543.777344 345.53125 543.628906 347.144531 543.691406 359.128906 C543.726562 366.414062 543.945312 373.386719 544.179688 374.628906 C544.859375 378.289062 549.125 383.433594 553.1875 385.5 L556.875 387.375 L589.71875 387.585938 L622.566406 387.796875 L622.34375 382.335938 L622.125 376.875 L592.125 376.5 C560.828125 376.109375 559.734375 375.988281 558.015625 372.78125 C557.59375 371.992188 557.25 369.808594 557.25 367.925781 L557.25 364.5 L583.226562 364.5 C600.519531 364.5 610.15625 364.214844 612.058594 363.644531 C618.460938 361.726562 623.207031 355.394531 623.226562 348.75 C623.238281 344.273438 620.359375 338.234375 616.988281 335.660156 C611.914062 331.792969 609.433594 331.492188 582.816406 331.566406 C569.375 331.601562 557.527344 331.886719 556.496094 332.199219 M560.921875 343.570312 C558.574219 344.449219 557.25 347.078125 557.25 350.847656 L557.25 353.625 L581.972656 353.25 C608.707031 352.84375 608.34375 352.90625 609.371094 348.703125 C609.695312 347.375 609.382812 346.214844 608.363281 344.953125 L606.882812 343.125 L584.878906 342.980469 C571.984375 342.894531 562.066406 343.140625 560.921875 343.570312"/>

  <!-- sync -->
  <path fill="url(#bluePurpleGradient)" fill-rule="evenodd" d="M682.125 332.25 C667.058594 332.667969 665.984375 332.96875 661.359375 338.089844 C654.25 345.957031 656.757812 357.414062 666.75 362.726562 C669.125 363.992188 671.90625 364.160156 695.878906 364.5 L722.386719 364.875 L723.816406 366.644531 C725.8125 369.109375 725.644531 372.425781 723.410156 374.660156 L721.566406 376.5 L663.367188 376.5 L660.246094 381.6875 C658.53125 384.539062 657.324219 387.070312 657.5625 387.3125 C658.285156 388.035156 723.136719 387.769531 726.320312 387.03125 C730.527344 386.054688 735.074219 382.59375 737.242188 378.71875 C740.96875 372.054688 739.253906 362.332031 733.496094 357.488281 C728.933594 353.648438 725.691406 353.25 699.03125 353.25 C671.265625 353.25 671.25 353.246094 671.25 348 C671.25 342.695312 670.929688 342.75 702.128906 342.75 L729.675781 342.75 L732.425781 337.835938 C733.9375 335.132812 735.011719 332.761719 734.816406 332.5625 C734.285156 332.035156 697.710938 331.816406 682.125 332.25 M743.496094 332.457031 C743.300781 332.773438 748.847656 342.394531 755.828125 353.832031 C762.808594 365.265625 769.980469 377.15625 771.769531 380.25 C773.558594 383.34375 775.511719 386.457031 776.109375 387.167969 C777.085938 388.332031 776.464844 389.628906 769.886719 400.160156 C765.871094 406.597656 762.433594 412.425781 762.25 413.117188 C761.972656 414.179688 762.484375 414.351562 765.523438 414.234375 C768.015625 414.144531 770.507812 414.082031 773 414.046875 L776.871094 414 L798.195312 378.5625 C824.203125 335.339844 825.699219 332.773438 825.257812 332.0625 C824.8125 331.339844 812.875 331.347656 811.84375 332.074219 C811.410156 332.375 805.203125 342.414062 798.042969 354.375 C790.882812 366.335938 784.859375 376.292969 784.660156 376.5 C784.457031 376.707031 784.171875 376.539062 784.019531 376.125 C783.667969 375.167969 758.546875 333.046875 758.007812 332.507812 C757.359375 331.863281 743.894531 331.8125 743.496094 332.457031 M847.65625 332.234375 C840.871094 333.273438 835.054688 338.308594 833.328125 344.625 C832.832031 346.445312 832.507812 355.53125 832.503906 367.714844 L832.5 387.804688 L846.375 387.375 L846.558594 367.875 C846.683594 354.308594 847.019531 347.839844 847.65625 346.625 C849.554688 342.992188 851.160156 342.75 873.375 342.75 C895.339844 342.75 897.402344 343.046875 899.226562 346.457031 C899.703125 347.34375 900 355.59375 900 367.824219 L900 387.75 L914.25 387.75 L914.25 368.285156 C914.25 345.570312 913.816406 342.671875 909.710938 338.007812 C904.492188 332.078125 903.789062 331.949219 876 331.777344 C862.59375 331.695312 849.839844 331.902344 847.65625 332.234375 M940.5 332.652344 C935.839844 334.097656 931.636719 337.804688 929.535156 342.320312 C927.878906 345.878906 927.765625 347 927.773438 359.625 C927.78125 371.589844 927.957031 373.507812 929.3125 376.5 C931.195312 380.660156 933.949219 383.636719 937.875 385.757812 C940.785156 387.328125 941.777344 387.382812 971.4375 387.601562 C988.246094 387.726562 1002 387.585938 1002 387.285156 C1002 386.988281 1000.941406 384.453125 999.652344 381.648438 L997.304688 376.554688 L971.546875 376.339844 C945.886719 376.125 945.785156 376.117188 944.082031 374.417969 C942.460938 372.800781 942.363281 372.066406 942.140625 360.078125 C941.90625 347.558594 941.921875 347.425781 943.761719 345.285156 L945.617188 343.125 L969.789062 342.75 L993.964844 342.375 L996.484375 337.621094 C997.871094 335.003906 998.816406 332.558594 998.582031 332.183594 C998.339844 331.789062 986.566406 331.523438 971.019531 331.550781 C950.007812 331.59375 943.113281 331.839844 940.5 332.652344"/>
</svg>