<svg width="59" height="53" viewBox="0 0 59 53" fill="none" xmlns="http://www.w3.org/2000/svg">
<path d="M58.6541 21.4727C57.1353 19.0546 55.6453 16.6109 54.2196 14.1147C53.7786 13.3427 53.3096 12.5335 53.3171 11.59C53.3226 10.605 53.0042 9.83884 52.5221 9.1048C51.5744 7.66005 50.5239 6.31601 49.4797 4.96612C49.2811 4.70928 49.277 4.58815 49.4858 4.32036C50.4308 3.10985 50.4733 1.62497 50.4075 0C49.4858 0.898221 48.471 1.35426 47.4514 1.8052C47.1624 1.93289 46.8084 2.04307 46.629 2.29991C46.1004 3.0595 45.6272 2.77785 45.0034 2.44804C42.9443 1.35572 40.7791 1.36448 38.5988 1.86576C38.0551 1.98908 37.5148 2.14449 36.9787 2.48817C38.5385 2.94859 39.0528 3.29883 39.2877 4.04455C39.0816 4.05695 38.8802 4.07447 38.6817 4.07884C36.0905 4.15473 33.7712 5.17262 31.6841 6.91288C28.9731 9.17703 27.2071 12.2745 26.03 15.8601C25.7759 16.6306 25.539 17.407 25.3418 18.3643C27.077 16.2337 28.8224 14.3766 31.226 13.5645C31.2403 13.8447 31.1705 14.0045 31.1123 14.168C30.6727 15.4084 30.3015 16.6736 30.103 17.998C29.7229 20.5226 29.9557 22.9488 31 25.2319C32.0401 27.5085 33.5925 29.2531 35.3113 30.827C37.2889 32.6373 39.452 34.1324 41.5227 35.7836C42.8128 36.8096 44.079 37.8676 45.1759 39.1751C45.7265 39.8333 46.1819 40.5695 46.5064 41.416C45.934 40.6936 45.3334 40.0186 44.6836 39.4021C43.1189 37.9143 41.3755 36.7483 39.6362 35.5706C37.2786 33.9704 34.8853 32.4374 32.7646 30.4126C31.1534 28.8737 29.7599 27.1291 28.9875 24.8255C28.1918 22.4424 28.2822 20.0338 28.8943 17.6215C29.019 17.1231 29.1648 16.6299 29.3004 16.1351C28.3294 17.4982 27.5666 18.986 27.0208 20.6204C26.2498 22.9284 25.941 25.3158 26.2347 27.7704C26.5881 30.7475 27.6577 33.3874 29.2258 35.7559C31.0924 38.5746 33.4069 40.7578 36.0015 42.5353C36.0056 42.5382 36.009 42.5411 36.0118 42.5433C36.0891 42.5966 36.1665 42.6506 36.2466 42.7038C36.2864 42.7301 36.3268 42.7585 36.3692 42.7848C36.6979 43.0015 37.1115 43.2642 37.3888 43.4357C37.558 43.5429 37.6792 43.6174 37.6942 43.6254C37.684 43.613 37.6751 43.5991 37.6662 43.5882C33.4747 37.8596 33.7692 36.3404 33.7692 36.3404L33.7822 36.3608C33.8507 36.463 34.0684 36.7096 34.2567 36.919C34.2711 36.9314 34.2848 36.9453 34.2978 36.9613C34.33 36.9985 34.3635 37.0358 34.3957 37.0722C34.4334 37.1138 34.4669 37.1518 34.4937 37.181C34.5067 37.1948 34.5169 37.2072 34.5299 37.2182C34.5354 37.2277 34.543 37.2371 34.5519 37.243C34.556 37.2496 34.5594 37.2525 34.5594 37.2525C35.5263 38.2981 36.6328 39.1263 37.7374 39.9603C39.1788 41.0482 40.6764 42.0427 42.1048 43.1569C42.1075 43.1584 42.1089 43.1599 42.1103 43.1613C42.5177 43.4773 42.921 43.8056 43.3168 44.1478C43.6188 44.3784 43.8852 44.6177 44.1125 44.8636C47.1173 48.107 43.9064 52.6047 43.8393 52.6995C45.1143 52.0625 46.1846 51.3562 47.0741 50.6514C47.0755 50.6514 47.0755 50.6514 47.0769 50.6499C48.2526 49.7174 49.1147 48.7834 49.7159 48.0194C49.7522 47.9742 49.7858 47.9297 49.8214 47.8845C49.9939 47.6553 50.1617 47.4204 50.3219 47.176C50.515 46.879 50.6958 46.5769 50.8581 46.2682C50.8608 46.2668 50.8622 46.2653 50.8622 46.2653C50.865 46.2558 50.8698 46.25 50.8725 46.242C50.8739 46.2405 50.8739 46.2391 50.8739 46.2391C51.6565 44.7542 52.0715 43.1248 51.9633 41.3072C51.8524 39.486 51.2957 37.8165 50.5465 36.2324C49.3373 33.6756 47.7541 31.4232 46.2223 29.1298C44.9212 27.1794 43.5935 25.2502 42.6656 23.0042C41.9459 21.2625 41.5467 19.4726 42.15 17.5616C42.2568 17.2238 42.3294 16.8407 42.6581 16.6204C42.7122 16.851 42.7498 17.0436 42.8012 17.2333C43.3182 19.0961 44.2139 20.5029 45.96 21.0013C47.5432 21.4544 49.1133 21.974 50.615 22.7335C51.5059 23.183 52.1003 23.9346 52.3125 25.0349C52.4468 25.7244 52.8268 26.09 53.3465 26.3177C54.2169 26.6971 55.1139 26.7474 56.0109 26.5015C56.8607 26.2732 57.7229 25.9207 58.1269 24.97C58.4069 24.3103 58.6699 23.6237 58.9157 22.9371C59.1129 22.3957 58.9349 21.92 58.6541 21.4727ZM48.7826 11.1238C48.6847 11.0647 48.6319 10.956 48.5402 10.8969C48.4395 10.8297 48.3135 10.8596 48.2053 10.8845C47.8006 10.9742 47.5172 10.6991 47.3247 10.346C47.2474 10.2402 47.196 10.1249 47.0748 10.0672C46.9988 10.0315 46.92 10.0235 46.8427 10.0001C46.8269 9.99572 46.7057 9.92203 46.7242 9.91911C47.5767 9.81768 48.734 10.1044 48.8785 11.1661C48.8791 11.1639 48.7881 11.1267 48.7826 11.1238Z" fill="#02A290"/>
<path d="M23.7517 28.0643C24.0728 30.7575 24.9459 33.3362 26.3476 35.7477H10.3406V52.2258C4.64132 52.2258 0.0198581 47.3137 0 41.245V11.495C0 5.4096 4.62968 0.477051 10.3406 0.477051V25.9716H23.6277C23.6277 26.6721 23.6688 27.3697 23.7517 28.0643Z" fill="#02A290"/>
</svg>
